<svg xmlns="http://www.w3.org/2000/svg" viewBox="0 0 50 50">
	<path fill="#e4edf8" d="M0 0h50v50H0z"/>
	<path fill="#fff" d="M39 19H26V9.5c0-.3-.3-.6-.6-.5l-14.6 4.1c-.4.1-.7.5-.7 1v25h30V20c-.1-.6-.5-1-1.1-1z"/>
	<g fill="#c7d5e5">
		<path d="M39 18H27V9.5c0-.5-.2-.9-.6-1.2-.4-.3-.8-.4-1.3-.3l-14.6 4.1c-.9.2-1.5 1-1.5 1.9v26h32V20c0-1.1-.9-2-2-2zM25 38H11V14l14-3.9V38zm14 0H27v-4h10v-2H27v-2h10v-2H27v-2h10v-2H27v-4h12v18z"/>
		<path d="M13 18h2v4h-2zM17 18h2v4h-2zM21 18h2v4h-2zM13 24h2v4h-2zM17 24h2v4h-2zM21 24h2v4h-2zM13 30h2v4h-2zM17 30h2v4h-2zM21 30h2v4h-2z"/>
	</g>
</svg>